<svg height="512pt" viewBox="0 0 512 512" width="512pt" xmlns="http://www.w3.org/2000/svg"><path d="m146.105469 301.519531c-3.175781 8.476563-1.359375 18.410157 5.445312 25.214844l33.714844 33.714844c6.804687 6.804687 16.742187 8.621093 25.214844 5.445312 3.746093 8.238281 12.054687 13.976563 21.679687 13.976563h47.679688c9.617187 0 17.921875-5.730469 21.675781-13.960938 2.644531.992188 5.472656 1.511719 8.386719 1.511719 6.355468 0 12.335937-2.476563 16.832031-6.972656l33.714844-33.714844c6.804687-6.804687 8.617187-16.738281 5.445312-25.214844 8.238281-3.746093 13.976563-12.054687 13.976563-21.679687v-47.679688c0-9.625-5.738282-17.933594-13.976563-21.679687 3.171875-8.476563 1.359375-18.410157-5.445312-25.214844l-33.714844-33.714844c-6.804687-6.804687-16.738281-8.617187-25.214844-5.445312-3.75-8.238281-12.054687-13.976563-21.679687-13.976563h-47.679688c-9.617187 0-17.921875 5.730469-21.675781 13.960938-2.644531-.992188-5.472656-1.511719-8.386719-1.511719-6.355468 0-12.335937 2.476563-16.832031 6.972656l-33.714844 33.714844c-6.804687 6.804687-8.621093 16.738281-5.445312 25.214844-8.238281 3.746093-13.976563 12.054687-13.976563 21.679687v47.679688c0 9.625 5.738282 17.929687 13.976563 21.679687zm128.351562-139.390625c1.882813 7.03125 6.921875 12.914063 13.882813 15.796875 6.960937 2.882813 14.683594 2.285157 20.984375-1.355469l26.105469 26.101563c-3.640626 6.304687-4.238282 14.027344-1.355469 20.988281 2.882812 6.960938 8.765625 12 15.796875 13.882813v36.914062c-7.03125 1.882813-12.914063 6.921875-15.796875 13.882813-2.882813 6.960937-2.285157 14.683594 1.355469 20.984375l-26.101563 26.105469c-6.304687-3.640626-14.027344-4.238282-20.988281-1.355469-6.957032 2.882812-12 8.765625-13.882813 15.796875h-36.910156c-1.886719-7.03125-6.925781-12.910156-13.886719-15.796875-6.957031-2.878907-14.679687-2.285157-20.984375 1.355469l-26.101562-26.105469c3.640625-6.300781 4.234375-14.023438 1.351562-20.984375-2.882812-6.960938-8.765625-12-15.796875-13.882813v-36.914062c7.03125-1.882813 12.914063-6.921875 15.796875-13.882813 2.882813-6.960937 2.289063-14.683594-1.351562-20.984375l26.101562-26.105469c6.304688 3.640626 14.027344 4.238282 20.984375 1.355469 6.960938-2.886719 12-8.765625 13.886719-15.796875zm0 0"/><path d="m194.5 256c0 33.910156 27.589844 61.496094 61.5 61.496094s61.5-27.585938 61.5-61.496094-27.589844-61.496094-61.5-61.496094-61.5 27.585938-61.5 61.496094zm61.5-31.496094c17.367188 0 31.5 14.128906 31.5 31.496094s-14.132812 31.496094-31.5 31.496094-31.5-14.128906-31.5-31.496094 14.132812-31.496094 31.5-31.496094zm0 0"/><path d="m497 198.507812c8.285156 0 15-6.71875 15-15 0-8.285156-6.714844-15-15-15h-55.496094v-18.332031h55.496094c8.285156 0 15-6.714843 15-15 0-8.28125-6.714844-15-15-15h-55.496094v-34.679687c0-8.285156-6.714844-15-15-15h-34.679687v-55.496094c0-8.285156-6.71875-15-15-15-8.285157 0-15 6.714844-15 15v55.496094h-18.332031v-55.496094c0-8.285156-6.714844-15-15-15-8.28125 0-15 6.714844-15 15v55.496094h-18.328126v-55.496094c0-8.285156-6.714843-15-15-15-8.285156 0-15 6.714844-15 15v55.496094h-18.328124v-55.496094c0-8.285156-6.71875-15-15-15-8.285157 0-15 6.714844-15 15v55.496094h-18.332032v-55.496094c0-8.285156-6.714844-15-15-15-8.28125 0-15 6.714844-15 15v55.496094h-18.328125v-55.496094c0-8.285156-6.714843-15-15-15-8.285156 0-15 6.714844-15 15v55.496094h-34.679687c-8.285156 0-15 6.714844-15 15v34.679687h-55.496094c-8.285156 0-15 6.71875-15 15 0 8.285157 6.714844 15 15 15h55.496094v18.332031h-55.496094c-8.285156 0-15 6.714844-15 15 0 8.28125 6.714844 15 15 15h55.496094v18.328126h-55.496094c-8.285156 0-15 6.714843-15 15 0 8.28125 6.714844 15 15 15h55.496094v18.328124h-55.496094c-8.285156 0-15 6.71875-15 15 0 8.285157 6.714844 15 15 15h55.496094v18.328126h-55.496094c-8.285156 0-15 6.71875-15 15 0 8.285156 6.714844 15 15 15h55.496094v18.332031h-55.496094c-8.285156 0-15 6.714843-15 15 0 8.28125 6.714844 15 15 15h55.496094v34.679687c0 8.285156 6.714844 15 15 15h34.679687v55.496094c0 8.285156 6.71875 15 15 15 8.285157 0 15-6.714844 15-15v-55.496094h18.332031v55.496094c0 8.285156 6.714844 15 15 15 8.28125 0 15-6.714844 15-15v-55.496094h18.328126v55.496094c0 8.285156 6.714843 15 15 15 8.285156 0 15-6.714844 15-15v-55.496094h18.328124v55.496094c0 8.285156 6.71875 15 15 15 8.285157 0 15-6.714844 15-15v-55.496094h18.332032v55.496094c0 8.285156 6.714844 15 15 15 8.28125 0 15-6.714844 15-15v-55.496094h18.328125v55.496094c0 8.285156 6.714843 15 15 15 8.285156 0 15-6.714844 15-15v-55.496094h34.683593c8.28125 0 15-6.714844 15-15v-34.679687h55.492188c8.285156 0 15-6.71875 15-15 0-8.285157-6.714844-15-15-15h-55.496094v-18.332031h55.496094c8.285156 0 15-6.714844 15-15 0-8.28125-6.714844-15-15-15h-55.496094v-18.328126h55.496094c8.285156 0 15-6.714843 15-15 0-8.28125-6.714844-15-15-15h-55.496094v-18.328124h55.496094c8.285156 0 15-6.71875 15-15 0-8.285157-6.714844-15-15-15h-55.496094v-18.328126zm-85.496094-98.011718v311.007812h-311.007812v-311.007812zm0 0"/></svg>